PathFileType	4	(X/Y/Z)	C:\Users\Basilio\Documents\Thesis Gigler\squatting_fais\c3dfiles\047\SJ_pre3\markers_experimental.trc
DataRate	CameraRate	NumFrames	NumMarkers	Units	OrigDataRate	OrigDataStartFrame	OrigNumFrames
200.000000	200.000000	4	60	mm	200.000000	1285	1714
Frame#	Time	FHD			LBHD			RBHD			C7			T10			CLAV			LSHO			LUUPA			LMUPA			LDUPA			LLEP			LMEP			LRAD			LUL			LRFIN			RSHO			RUPA1			RMUPA			RDUPA			RLEP			RMEP			RRAD			RUL			RUFIN			LASI			RASI			USACR			LSACR			RSACR			LTHI1			LTHI2			LTHI3			LTHI4			LLFC			LMFC			LTIB1			LTIB2			LTIB3			LTIB4			LLMAL			LMMAL			LMT1			LMT2			LMT5			RTHI			RTHI2			RTHI3			RTHI4			RLFC			RMFC			RTIB1			RTIB2			RTIB3			RTIB4			RLMAL			RMMAL			RHEE			RMT1			RMT2			RMT5			
		X1	Y1	Z1	X2	Y2	Z2	X3	Y3	Z3	X4	Y4	Z4	X5	Y5	Z5	X6	Y6	Z6	X7	Y7	Z7	X8	Y8	Z8	X9	Y9	Z9	X10	Y10	Z10	X11	Y11	Z11	X12	Y12	Z12	X13	Y13	Z13	X14	Y14	Z14	X15	Y15	Z15	X16	Y16	Z16	X17	Y17	Z17	X18	Y18	Z18	X19	Y19	Z19	X20	Y20	Z20	X21	Y21	Z21	X22	Y22	Z22	X23	Y23	Z23	X24	Y24	Z24	X25	Y25	Z25	X26	Y26	Z26	X27	Y27	Z27	X28	Y28	Z28	X29	Y29	Z29	X30	Y30	Z30	X31	Y31	Z31	X32	Y32	Z32	X33	Y33	Z33	X34	Y34	Z34	X35	Y35	Z35	X36	Y36	Z36	X37	Y37	Z37	X38	Y38	Z38	X39	Y39	Z39	X40	Y40	Z40	X41	Y41	Z41	X42	Y42	Z42	X43	Y43	Z43	X44	Y44	Z44	X45	Y45	Z45	X46	Y46	Z46	X47	Y47	Z47	X48	Y48	Z48	X49	Y49	Z49	X50	Y50	Z50	X51	Y51	Z51	X52	Y52	Z52	X53	Y53	Z53	X54	Y54	Z54	X55	Y55	Z55	X56	Y56	Z56	X57	Y57	Z57	X58	Y58	Z58	X59	Y59	Z59	X60	Y60	Z60	

1286	6.425	227.6921386718751	1048.033813476563	-897.1160888671877	96.48281097412112	1143.35791015625	-983.7082519531252	78.47731018066408	1164.682739257813	-838.598083496094	-62.96985244750978	1066.232666015625	-910.5576782226565	-321.7202148437501	874.3273925781252	-899.7971801757815	7.253134727478029	910.3417968750002	-906.5222778320315	-27.45359611511231	976.680114746094	-1080.774047851563	-179.7505798339844	996.9714965820315	-1191.146484375	-175.4580078125	953.8826293945315	-1219.8125	-230.1617431640626	976.1287841796877	-1236.3134765625	-276.6235961914063	930.396911621094	-1276.194091796875	-333.9279174804688	947.0808715820315	-1197.311279296875	-310.1073303222657	745.6164550781251	-1101.37158203125	-294.5700988769532	696.9651489257814	-1159.89306640625	-261.5334472656251	715.4957275390626	-1064.385375976563	-19.27981948852539	1000.902587890625	-744.5982666015626	-184.9338531494141	1029.140869140625	-628.3358154296876	-188.014892578125	987.1138305664065	-602.0863037109376	-240.3680419921876	1012.399475097656	-587.2536621093751	-290.9918823242188	967.7812500000002	-551.0045776367189	-347.5955200195313	980.209899902344	-625.1411743164064	-282.7301635742188	762.4911499023439	-696.2879638671876	-299.2203063964844	722.8265380859376	-632.4375000000001	-268.4057922363282	699.4926147460939	-731.4053344726564	-365.1822814941407	604.8068847656251	-1003.517272949219	-371.3942260742188	610.9764404296876	-776.9578247070315	-441.0410156250001	791.1975097656252	-904.057067871094	-468.0042114257814	775.5003662109377	-933.2464599609377	-471.626434326172	775.7958984375002	-875.4240722656252	-423.0800170898439	609.0009765625001	-1116.357421875	-341.6628417968751	600.8585815429689	-1133.485229492188	-315.2541198730469	631.0350341796876	-1106.320190429688	-314.7373657226563	553.2534179687501	-1159.377807617188	-186.1641540527344	448.1157531738282	-1186.045532226563	-132.0697631835938	435.2770385742189	-1070.822509765625	-181.5641326904297	274.6499938964844	-1102.046997070313	-221.2716827392579	238.3647766113282	-1171.004760742188	-198.8880310058594	229.3742828369141	-1131.746704101563	-242.7442169189454	165.2056121826172	-1098.904418945313	-331.8387451171876	95.13537597656251	-1140.492431640625	-295.9246826171876	102.9444732666016	-1055.261352539063	-180.1432495117188	64.79705047607423	-1108.302490234375	-191.4100799560547	63.10234832763673	-1151.143310546875	-242.236312866211	45.46505737304688	-1187.944091796875	-420.0401916503907	587.1528320312501	-652.4969482421876	-357.1059875488282	585.9042358398439	-630.9010009765626	-335.5432434082032	609.7062377929689	-639.3148193359376	-313.7031860351563	519.5677490234376	-604.6361083984376	-193.3789978027344	441.8747558593751	-586.1545410156251	-134.7026824951172	439.2520751953126	-703.4446411132814	-169.331298828125	316.3673706054688	-603.3004760742189	-267.7998657226563	265.8896484375001	-591.6815185546876	-225.0085754394532	249.4864349365235	-599.7929687500001	-228.0029754638672	205.0121002197266	-638.4719238281251	-346.3819274902344	91.17342376708986	-642.9171752929689	-296.2509765625001	102.0704193115235	-722.2358398437501	-397.0212402343751	52.93761825561525	-710.2512207031251	-188.1471099853516	55.68817520141603	-666.2222900390626	-199.7842864990235	58.22227096557619	-621.4477539062501	-260.0253906250001	31.14786911010743	-578.9102172851564	
1287	6.43	227.4197845458985	1048.208862304688	-897.0205688476565	96.37245178222659	1143.3193359375	-983.7755126953127	78.05589294433595	1164.625244140625	-838.544616699219	-63.28887176513673	1066.080688476563	-910.471374511719	-321.9135131835938	874.2994384765627	-899.6777343750002	7.106891155242922	910.315856933594	-906.4971313476565	-27.77789497375489	976.742614746094	-1080.7431640625	-179.8675537109375	996.624206542969	-1191.260375976563	-175.7719879150391	953.9522094726565	-1219.7099609375	-230.5260772705079	976.123474121094	-1236.328002929688	-276.8578491210938	930.3599243164065	-1276.175537109375	-334.2733459472657	947.096618652344	-1197.328002929688	-310.4325256347657	745.5920410156251	-1101.347778320313	-294.7796630859376	697.0522460937501	-1159.91259765625	-261.6505432128907	715.6271362304689	-1064.397338867188	-19.4515380859375	1001.008361816406	-744.7356567382814	-185.1712036132813	1029.109497070313	-628.3301391601564	-188.1602020263672	987.1683349609377	-602.0346679687501	-240.6645050048829	1012.292785644531	-587.2316894531251	-291.2792358398438	967.734802246094	-550.9865112304689	-347.8344421386719	980.2033691406252	-625.0733032226564	-283.0452575683594	762.4121093750001	-696.1560668945314	-299.5539855957032	722.5692138671876	-632.3872070312501	-267.3786010742188	698.4595336914064	-729.6972045898439	-365.1950683593751	604.9083251953126	-1003.545349121094	-371.2929687500001	610.8563842773439	-776.9947509765627	-441.2144470214845	791.1348876953127	-903.9726562500002	-468.1922302246095	775.4199218750002	-933.1050415039065	-471.8649291992189	775.6191406250002	-875.1846313476565	-423.2954406738282	608.8987426757814	-1116.32470703125	-341.7844848632813	600.8351440429689	-1133.43408203125	-315.4924926757813	631.0421752929689	-1106.272338867188	-314.8935546875001	553.2325439453126	-1159.359252929688	-186.3736419677735	448.1557006835939	-1186.074584960938	-132.0112762451172	435.3926086425782	-1071.035400390625	-181.7063446044922	274.5413513183594	-1102.038452148438	-221.2778472900391	238.396957397461	-1170.985473632813	-199.0826873779297	229.3035888671876	-1131.765014648438	-242.830795288086	165.2310333251953	-1098.95849609375	-331.9037780761719	95.13230895996095	-1140.507690429688	-295.9544067382813	102.9338302612305	-1055.241088867188	-180.1434478759766	64.79678344726564	-1108.302734375	-191.455078125	63.15244674682619	-1151.205200195313	-242.2593078613282	45.44108200073243	-1187.948608398438	-420.1052551269532	586.9618530273439	-652.3490600585939	-357.1544189453126	585.8318481445314	-630.7900390625001	-335.7701721191407	609.7064819335939	-639.2231445312501	-313.6835327148438	519.5344848632814	-604.7860717773439	-193.3730773925782	441.903289794922	-586.2767333984376	-134.7110290527344	439.2757263183595	-703.4274291992189	-169.356185913086	316.3675842285157	-603.3016967773439	-267.7640075683594	265.8788146972657	-591.6729736328126	-225.0102081298829	249.5191192626954	-599.7464599609376	-228.0225982666016	205.0305175781251	-638.4808959960939	-346.3642883300782	91.12124633789064	-642.9824829101564	-296.3166503906251	102.0753784179688	-722.1628417968751	-397.0872192382814	52.94559478759767	-710.2651977539064	-188.2010803222657	55.52614593505861	-666.1629028320314	-199.7761230468751	58.22450637817384	-621.4907836914064	-260.0642089843751	31.18013381958009	-578.8914794921876	
1288	6.435	227.0824584960938	1048.283203125	-896.8847656250002	96.01907348632815	1143.41455078125	-983.6833496093752	77.5692596435547	1164.566528320313	-838.351501464844	-63.87089157104494	1066.140991210938	-910.2649536132815	-322.1593627929688	874.2666625976565	-899.548522949219	6.817249774932863	910.333679199219	-906.424011230469	-28.13218498229981	976.7899169921877	-1080.658813476563	-180.0984497070313	996.6126708984377	-1191.242431640625	-176.0500183105469	953.9443969726565	-1219.723754882813	-230.7557678222657	976.0826416015627	-1236.368896484375	-277.0070495605469	930.3306884765627	-1276.221923828125	-334.5905761718751	947.0885009765627	-1197.406494140625	-310.6658630371094	745.5588989257814	-1101.398193359375	-294.9524230957032	697.0206298828126	-1159.925659179688	-261.9754333496094	715.5396118164064	-1064.399169921875	-19.68432235717774	1001.008422851563	-744.5502319335939	-185.4981689453125	1029.166259765625	-628.2161254882814	-188.3993530273438	987.2562255859377	-602.2351684570314	-240.8142242431641	1012.259948730469	-587.2445068359376	-291.4751892089844	967.7863769531252	-551.0554809570314	-348.0530090332032	980.1998291015627	-625.0461425781251	-283.1918029785157	762.3475341796876	-696.1160278320314	-299.8041687011719	722.5845336914064	-632.2494506835939	-267.6005249023438	698.4957885742189	-729.5723266601564	-365.8160400390626	604.4691162109376	-1003.031982421875	-372.1644287109376	610.7590942382814	-776.515319824219	-441.4180603027345	791.0739746093752	-903.8303833007815	-468.4470214843751	775.3667602539065	-933.011901855469	-472.1789550781251	775.6680297851565	-875.0750122070315	-423.4288635253907	608.9153442382814	-1116.258911132813	-341.9988403320313	600.8186645507814	-1133.4111328125	-315.6351623535157	631.0889282226564	-1106.215209960938	-315.2087097167969	553.4453125000001	-1159.207153320313	-186.455307006836	448.1760253906251	-1186.138671875	-132.1470489501953	435.3636169433595	-1070.991455078125	-181.7678833007813	274.5188903808594	-1102.0546875	-221.3191833496094	238.4792175292969	-1171.0849609375	-199.1570129394532	229.3248596191407	-1131.863037109375	-242.8212432861329	165.2554626464844	-1098.968139648438	-331.9130859375001	95.0917205810547	-1140.510986328125	-295.9774169921876	102.9591522216797	-1055.244750976563	-180.1434478759766	64.79678344726564	-1108.302734375	-191.3588409423828	63.16068649291994	-1151.252075195313	-242.2684936523438	45.46913146972657	-1187.935668945313	-420.1813049316407	586.8909912109376	-652.2717285156251	-357.2138977050782	585.7345581054689	-630.8226318359376	-335.9191894531251	609.6896972656251	-639.1194458007814	-313.7032470703126	519.5113525390626	-604.7155151367189	-193.3156127929688	441.9202270507814	-586.2461547851564	-134.7239532470703	439.2691955566407	-703.4259643554689	-169.3996124267578	316.3775329589844	-603.2435302734376	-267.7541809082032	265.8390197753907	-591.6619873046876	-224.9978179931641	249.4910583496094	-599.8169555664064	-228.0105590820313	205.0420074462891	-638.4964599609376	-346.3963317871094	91.15520477294923	-642.9066162109376	-296.2765197753907	102.0705718994141	-722.2096557617189	-397.0523376464845	52.94103240966798	-710.2595825195314	-188.2239837646485	55.42323684692384	-666.1177978515626	-199.7506256103516	58.23396301269533	-621.5274047851564	-260.0059814453126	31.16795921325684	-578.9449462890626	
1289	6.44	226.8281707763672	1048.392578125	-896.7341308593752	95.77845764160158	1143.450317382813	-983.6042480468752	77.36994934082033	1164.620727539063	-838.2841796875002	-64.20754241943361	1066.160034179688	-910.2110595703127	-322.3567504882813	874.2344360351565	-899.4829711914065	6.471395969390871	910.3095703125002	-906.1943969726565	-28.39356994628907	976.828796386719	-1080.662353515625	-180.3805389404297	996.6137695312502	-1191.266357421875	-176.447509765625	953.9163208007815	-1219.69140625	-231.0222320556641	976.0756835937502	-1236.377075195313	-277.3014831542969	930.2696533203127	-1276.2001953125	-334.9053039550782	947.0665283203127	-1197.380737304688	-310.9869384765626	745.5116577148439	-1101.41162109375	-295.3993530273438	697.0147705078126	-1159.919921875	-262.0794982910157	715.1425781250001	-1064.4765625	-20.11910247802735	1000.998168945313	-744.5471191406251	-186.038818359375	1029.146850585938	-627.9802246093751	-188.6549377441407	987.2024536132815	-602.0878295898439	-240.9898986816407	1012.278381347656	-587.2536621093751	-291.6716003417969	967.7313232421877	-551.0552368164064	-348.2535705566407	980.1716308593752	-624.9990234375001	-283.2993469238282	762.3640747070314	-696.1807250976564	-300.0184631347657	722.6154174804689	-632.2781982421876	-269.1619262695313	699.4984130859376	-731.2658081054689	-365.6705322265626	604.8033447265626	-1003.293029785156	-371.6438903808594	610.7987060546876	-776.776062011719	-441.639862060547	791.0862426757815	-903.7330322265627	-468.7212829589845	775.3060302734377	-932.8997802734377	-472.3259887695314	775.5410766601565	-875.0301513671877	-423.5983276367189	608.8287353515626	-1116.215209960938	-342.1935424804688	600.8203735351564	-1133.3671875	-315.7965698242188	631.1052856445314	-1106.168090820313	-315.1528625488282	553.3411865234376	-1159.301025390625	-186.5831604003907	448.1802673339845	-1186.21826171875	-132.1908111572266	435.3610839843751	-1071.006713867188	-181.9223937988282	274.5430297851563	-1102.047241210938	-221.3653106689454	238.4599761962891	-1171.062133789063	-199.3175354003907	229.3087463378907	-1131.837890625	-242.9232482910157	165.2033081054688	-1098.984741210938	-331.9219970703126	95.10523223876955	-1140.519287109375	-296.0436401367188	102.9440078735352	-1055.256713867188	-180.1436309814453	64.79651641845705	-1108.302978515625	-191.4484100341797	63.12364959716798	-1151.16357421875	-242.1075897216797	45.3836898803711	-1187.9775390625	-420.256561279297	586.7919921875001	-652.2409667968751	-357.2766723632813	585.6304321289064	-630.7678222656251	-335.9638977050782	609.6330566406251	-639.0861206054689	-313.6998901367188	519.5172729492189	-604.7528076171876	-193.3673400878907	441.876190185547	-586.2494506835939	-134.722900390625	439.3146972656251	-703.4595336914064	-169.3875427246094	316.3612670898438	-603.2447509765626	-267.7194519042969	265.8226318359376	-591.6649169921876	-225.0327453613282	249.5012207031251	-599.7312011718751	-227.9992370605469	205.0536499023438	-638.4337158203126	-346.4968566894532	91.14747619628908	-642.8912353515626	-296.3128356933594	102.0472259521485	-722.2367553710939	-397.0782470703126	52.91853332519533	-710.2635498046876	-188.03759765625	55.74146652221681	-666.2960815429689	-199.7193908691407	58.2467498779297	-621.5653076171876	-260.0186462402344	31.15609550476075	-578.9182128906251	
